# xmcd
#
# Track frame offsets:
#   150
#   20829
#   39634
#   54366
#   74038
#   90606
#   108158
#   126795
#   143986
#   162288
#   178578
#   192099
#   209962
#   229566
#   243810
#   259234
#   275417
#   288973
#   309658
#   323850
#
# Disc length: 4540 seconds
#
# Revision: 0
# Processed by: cddbd v1.5.1PL0 Copyright (c) Steve Scherf et al.
# Submitted via: uFREEDB ActiveX Control 1.5
#
DISCID=2c11ba14
DTITLE=Gian and Giovane - Gian and Giovane
DYEAR=2005
DGENRE=Industrial
TTITLE0=amor perfeito
TTITLE1=na batida do seu coração
TTITLE2=teimosia
TTITLE3=a gente não consegue se amar
TTITLE4=olhos de amor
TTITLE5=tambem quero ser amado
TTITLE6=eu quero é mais
TTITLE7=querer por querer
TTITLE8=você virou saudade
TTITLE9=é com o mundo q se aprende
TTITLE10=vida cigana
TTITLE11=na última hora
TTITLE12=saudade antiga
TTITLE13=vidas de cristal
TTITLE14=a proxima vítima
TTITLE15=me fazer perder o medo
TTITLE16=virou amor
TTITLE17=infelizmente você me perdeu
TTITLE18=sonhador
TTITLE19=que bom te encontrar de novo
EXTD=
EXTT0=
EXTT1=
EXTT2=
EXTT3=
EXTT4=
EXTT5=
EXTT6=
EXTT7=
EXTT8=
EXTT9=
EXTT10=
EXTT11=
EXTT12=
EXTT13=
EXTT14=
EXTT15=
EXTT16=
EXTT17=
EXTT18=
EXTT19=
PLAYORDER=
